<?xml version="1.0" encoding="UTF-8"?>
<!DOCTYPE svg PUBLIC "-//W3C//DTD SVG 1.1//EN" "http://www.w3.org/Graphics/SVG/1.1/DTD/svg11.dtd">
<!-- Creator: CorelDRAW 2018 (64-Bit) -->
<svg xmlns="http://www.w3.org/2000/svg" xml:space="preserve" width="20.32mm" height="20.32mm" version="1.1"
     style="shape-rendering:geometricPrecision; text-rendering:geometricPrecision; image-rendering:optimizeQuality; fill-rule:evenodd; clip-rule:evenodd"
     viewBox="0 0 2032 2032"
     xmlns:xlink="http://www.w3.org/1999/xlink">
 <defs>
  <style type="text/css">
   <![CDATA[
    .fil6 {fill:#201C26}
    .fil3 {fill:#6CA3ED}
    .fil10 {fill:#6F4E3C}
    .fil9 {fill:#CBD8EE}
    .fil5 {fill:#D89CAA}
    .fil7 {fill:#D98879}
    .fil8 {fill:#E2E9F4}
    .fil4 {fill:#FDFEFF}
    .fil1 {fill:#FEFEFE}
    .fil0 {fill:#FF9000}
    .fil2 {fill:#FFB556}
   ]]>
  </style>
 </defs>
 <g id="Слой_x0020_1">
  <metadata id="CorelCorpID_0Corel-Layer"/>
  <g id="_2207366466416">
   <path class="fil0"
         d="M1034.07 223.07c308.14,0 557.93,248.99 557.93,556.13 0,307.14 -249.79,556.14 -557.93,556.14 -308.14,0 -557.94,-249 -557.94,-556.14 0,-307.14 249.8,-556.13 557.94,-556.13z"/>
   <path class="fil1"
         d="M1469.27 838.31c-2.28,1.95 -0.58,1.35 -9.03,1.35 0,23.97 -17.85,93.89 -26.73,113.69 -3.94,8.81 -6.39,16.02 -11.17,23.93 -4.08,6.77 -9.15,15.27 -14.47,20.64 -5.94,5.99 -11.64,12.05 -19.94,15.15 -27.27,10.21 -66.16,12 -93.35,5.36 -45.16,-11.02 -55.35,-35.75 -77.29,-54.09 -11.88,-9.94 -33.24,-30.94 -46.83,-33.68 -2.59,1.4 -4.19,3.44 -6.94,5.38 -33.68,23.68 -94.81,33.52 -134.29,34.11l11.97 37.99c7.63,27.58 12,59.7 2.66,87.06 -3.77,11.04 -11.87,25.18 -18.79,30.14 -10.02,-8.92 -16.95,-45.62 -19.91,-62.17 -4.55,-25.54 -5.8,-46.82 -8.39,-72.82 -2.38,2.39 -3.51,4.38 -5.8,6.77 -2.28,2.39 -3.63,3.91 -5.85,6.23 -3.71,3.87 -7.74,7.8 -12.2,11.84 -16.51,14.93 -68.34,56.75 -89.82,55.65 -1.06,-11.05 9.27,-30.57 13.99,-38.22 13.01,-21.09 32.53,-37.74 52.56,-51.75l32.27 -19.84c-22.19,-10.51 -15.33,-8.76 -31.05,-19.58 -5.58,2.93 -13.74,5.93 -20.42,8.18l-89.45 30.89c-17.25,4.89 -27.36,8.62 -46.75,13.42 -20.68,5.12 -57.09,13.89 -78.47,10.69 -17.37,-2.61 -27.04,-8.76 -34.22,-25.95 -9.08,-21.75 -10.26,-55.3 -7.15,-80.56 0.45,-3.63 1.19,-9.04 1.77,-13.27 0.57,-4.08 1.87,-8.99 1.96,-13.09l2.86 0c-6.71,-4.03 -11.15,-3.93 -19.4,-5.52 -4.12,-0.8 -17.09,-3.95 -19.01,-3.88l42.37 -0.99c2.16,-3.45 17.07,-52.74 18.01,-58.76 -15.06,0.32 -66.03,8.18 -76.58,0.94 -1.98,2.08 -2.15,3.44 -2.84,6.6 -0.6,2.77 -1.02,5.23 -1.48,7.53 -9.72,48.78 -17.7,88.48 -23.32,139.16 -1.07,9.64 -2.91,22.47 -2.85,33.27 0.14,23.6 -2.34,50.49 9.75,62.5 8.05,8 36.39,22.33 46.3,25.9 57.85,20.84 94.13,23.12 157.51,18.91 10.42,-0.69 21.94,-3.98 32.12,-3.98l-15.61 35.55c-2.59,6.51 -4.89,11.21 -7.8,17.27 -6.58,13.67 -16.49,39.62 -23.37,53.85l-16.06 36.1c-5.73,11.35 -19.15,42.98 -22.39,54.84 -1.83,6.7 -4.09,13.17 -6.02,20.06 -6.21,22.23 -4.57,23.14 -7.6,43.55 -2.33,15.71 3.59,38.9 3.59,47.5 2.18,1.22 1.39,-0.6 1.49,2.39 5.33,3.47 12.38,20.61 43.89,41.72 53.96,36.16 135.09,34.37 198.02,21.84 5.45,-1.08 12.41,-3.13 18.31,-3.62l1 -0.94 2.01 0 2 -0.93 2.01 0c0,-1.38 -0.36,-1.09 1,-0.93 12.3,-1.1 53.36,-17.19 66.7,-22.7 43.46,-17.97 78.15,-37.92 113.96,-66.52 11.69,-9.33 24.38,-22.17 33.23,-33.98l6.75 -10.25c1.93,-2.9 0.71,-1.61 2.96,-3.32 1.48,-5.64 8.3,-14.53 9.04,-28.85 0.96,-18.64 -11.22,-41.99 -16.93,-59.32 -7.21,-21.83 -22.57,-59.57 -31.1,-83.24 -3.45,-9.59 -7.03,-17.35 -10.51,-27.61 -2.04,-6.01 -10.32,-24.31 -10.66,-28.45l17.44 5.63c33.63,8.34 48.63,8.55 80.54,12.71 15.99,2.08 40.96,1.78 57.47,1.76 5.5,-0.01 6.48,-0.81 11.01,-1.03 36.82,-1.75 94.98,-13.51 117.13,-46.33 3.49,-5.17 5.23,-10.15 9.2,-14.44 -0.91,-2.07 0.02,-3.9 1.03,-6.3 13.04,-30.85 22.93,-74.64 28.72,-106.97 7.24,-40.41 13.51,-87.26 15.57,-129.06l0.05 -10.06 -41.56 -16.81 -15.02 42.32c7.03,3.09 16.13,7.73 22.93,10.23 -5.18,0.15 -10.83,0.64 -14.73,-0.79z"/>
   <path class="fil2"
         d="M1032.69 1869.83c0,22.27 -2.01,31.77 6.59,47.51 14.15,25.88 39.58,38.71 67.54,39.95l9.08 0c13.55,-0.59 27.46,-3.77 40.79,-9.4 52.82,-22.32 75.38,-84.65 57.58,-161.06 7.99,-5.35 10.9,-8.48 22.23,-11.12 9.59,115.21 133.33,162.96 217.82,77 16.78,-17.06 40.89,-56.92 41.58,-88.12 16.55,4.42 69.1,49.81 134.25,8.25 75.11,-47.91 87.37,-139.21 59.96,-212.06 -0.01,72.45 -15.73,114.63 -56.25,145.37 -53.79,40.81 -97.72,31.44 -147.85,0.38 -10.07,36.8 -17.49,64.07 -40.07,85.94 -97.7,94.66 -212.07,36.22 -218.66,-74.56l-23.27 10.35c-0.76,71.28 10.83,110.78 -35.98,149.49 -17.51,14.48 -43.42,23.94 -71.67,22.61 -41.29,-1.93 -48.73,-20.16 -63.67,-30.53z"/>
   <path class="fil2"
         d="M707.8 1697.89c-9.17,-28.69 -9.84,-26 -5.89,-58.28 -30.99,21.27 -68.68,37.74 -118.58,22.2 -52.45,-16.33 -42.7,-35.05 -72.07,-42.95 -30.83,-8.29 -52.22,-17.86 -72.85,-45.59 -23.41,-31.46 -9.79,-9.96 -49.11,-28.65 -31.93,-15.17 -61.96,-46.11 -67.85,-88.4 -59.51,-8.76 -69.01,-46.24 -85.49,-55.26 0,59.42 44.94,107.37 96.34,111.64 0.9,40.2 35.63,72.55 64.85,87.09 42.32,21.06 32.58,2.28 48.71,25.41 11.69,16.75 21.77,27.53 40.73,37.08 43.16,21.77 34.39,5.17 52.52,21.61 59.81,54.24 134.29,50.19 168.69,14.1z"/>
   <path class="fil2"
         d="M1020.18 1812.77c2.73,-76.33 -2.14,-50.1 -41.99,-63.99 -12.56,-4.37 -25.81,-15.57 -33.97,-15.37 -3.35,0.09 -25.28,9.62 -34.93,11.16 -15.73,2.5 -33.05,1.68 -47.45,-1.99 -15.91,-4.05 -19.87,-11.02 -34.34,-8.86 -90.6,13.49 -83.64,-11.21 -117.21,-30.16 0,35.79 2.09,56.23 38.46,78.16 40.46,24.41 86.85,7.69 95.64,7.51 6.01,-0.13 51.63,25.56 94.35,7.19 25.27,-10.87 12.55,-9.89 36.97,2.8 16.83,8.75 26.55,8.46 44.47,13.55z"/>
   <path class="fil2"
         d="M1684.9 1522.02c19.71,-0.26 35.54,-13.49 49.64,-26.48 35.01,-32.24 17.97,-43.23 45.85,-61.61 64.24,-42.36 66.76,-151.32 44.32,-177.02 -2.02,59.95 -21.21,97.98 -58.42,122.15 -26.04,16.92 -23.89,76.99 -97.28,88.56l15.89 54.4z"/>
   <path class="fil3"
         d="M1371.03 215.13c2.69,8.36 -1.56,1.58 8.76,-6.92 28.48,-52.89 -18.83,-97.13 -70.45,-85.48 0.92,0.59 2.33,0.25 2.89,1.53l12.66 3.67c58.14,12.34 55.93,47.89 46.14,87.2z"/>
   <path class="fil0"
         d="M1372.1 1628.97c3.89,20.99 5.99,49 2.5,69.93 -3,17.93 -19.03,48.98 -39.91,30.76 -33.59,-29.3 27.42,-88.4 37.41,-100.69zm190.91 -109.43c5.03,18.89 12.46,38.25 14.96,59.72 2.64,22.63 -3.29,56.8 -29.18,48.62 -25.61,-8.09 -13.31,-58.01 -1.83,-82.65l16.05 -25.69zm-77.99 -180.02c11.41,18.82 25.1,55.38 35.38,78.32 12.3,27.44 3.36,71.43 -26.45,63.45 -29.44,-7.88 -80.27,-121.93 -8.93,-141.77zm114.64 -124.27c0.79,0.52 1.74,1.39 2.19,1.79l4.17 3.7c0.56,0.55 1.35,1.36 1.91,1.94l44.63 55.44c8.51,10.35 17.7,18.23 17.01,37.83 -3.63,102.73 -150.52,-63.73 -69.91,-100.7zm7.82 169.81c-3.78,19.3 -14.89,45.2 -24.97,59.39 -17.5,-30.21 -56.47,-140.88 -71.79,-156.41 -18.18,4.98 -24.24,11.14 -31.36,30.14 -42.62,3.54 -66.51,32.49 -70.03,75.67 -4.1,50.23 16.59,80.4 34.8,111.34l-31.2 46.55c-4.43,4.04 -2.33,2.35 -5.96,4.59l-35.65 -165.63c-99.71,-2.35 41.74,183.16 -48.55,179.88 -16.74,-19.53 -24.82,-110.12 -36.7,-140.13 -28.27,-2.17 -60.18,25.83 -50.99,49.99 23.88,10.71 -15.16,-0.16 15.36,1.48 0.49,0.02 1.72,-0.13 2.52,0.12 11.68,36.06 11.28,89.23 30.21,121.02 9.15,15.36 25.48,28.18 49.13,16.5 19.27,-9.51 22.16,-27.89 33.4,-45.1 7.74,56.3 -24.03,36.18 -58.28,105.3 -25.32,51.09 8.03,108.87 61.68,83.97 82.64,-38.36 31.25,-165.31 49.67,-190.98 12.11,-16.88 29.27,-32.34 34.04,-55.32 23.15,9.76 37.12,24.94 64.63,5.66 14.85,-10.41 22.05,-32.04 24.53,-57.8 15.81,31.94 8.79,25.63 -6.28,53.8 -9.65,18.03 -19.31,39.95 -23.32,61.46 -22.43,120.06 148.48,115.36 96.72,-62.54 -6.9,-23.74 -21.16,-42.41 -11.47,-62.62 7.99,-16.67 17.64,-47.78 24.28,-60.16 61.4,16.51 72.67,-22.37 65.95,-79.07 50.88,18.75 65.4,-14.84 66.21,-59.3 0.34,-18.8 1.05,-28.37 -13.58,-32.95 -10.96,18.17 -1.37,34.81 -22.23,49.53 -21.07,-4.42 -41.8,-37.44 -54.48,-54.72 -15.45,-21.05 -33.43,-41.58 -48.95,-61.13 -12.07,4.46 -17.32,9.97 -21.9,22.01 -9.98,26.2 1.13,9.53 -22.9,25.34 -16.73,11.02 -30.62,32.39 -30.29,63.09 0.56,53.08 39.69,102.33 67.75,117.03z"/>
   <path class="fil0"
         d="M1065.07 1524.76c0.56,-0.08 1.79,-0.36 2.41,-0.42 17.18,-1.87 10.1,-4.35 14.18,4.8l3.55 102.05c-17.27,14.77 -54.55,32.61 -54.84,0.63l29.97 -106.14 4.73 -0.92zm65.31 116.2c-1.05,-22.41 -5.36,-79.72 -2.65,-98.79 3.56,-25.17 34.67,-52.4 53.52,-26.11 27.46,38.31 10.26,136.6 -50.87,124.9zm-327.3 -168.38c-9.01,-41.47 8.92,-66.38 45.37,-73.77l-78.59 263.79c55.87,22.53 58.48,-22.97 80.99,-105.77 14.05,-51.71 30.3,-103.7 44.85,-155.11l49 7.73c-4.62,33.99 -27.2,94.37 -37.6,129.51 -8.83,29.85 -36.73,106.44 -38.02,132.68 55.28,14.19 53.49,-12.76 78.15,-103.65 13.37,-49.26 29.67,-97.54 42.36,-147.11l49.45 7.45c-17.28,109.84 -96.58,238.4 -35.26,254.5 41.41,10.87 63.69,-25.09 82.61,-28.27 0.91,31.55 0.94,153.14 7.78,174.51 59.04,6.11 39.32,-63.95 36.99,-161.21 67.43,11.28 106,-55.54 105.74,-121.92 -0.36,-88.04 -70.15,-116.72 -108.79,-44.74 -2.04,-4.9 -7.45,-40.28 -43.19,-14.26 -11.31,8.24 -2.71,5.14 -16.03,12.08 3.09,-15.21 11.45,-54.21 19.95,-63.73 13.27,-14.87 36.71,-18.81 17.09,-51.38 -18.45,-1.36 -24.39,8.8 -114.06,-0.67 -69.36,-7.31 -173.32,-30.27 -218.87,17.89 -12.95,13.7 -39.72,76.55 30.08,71.45z"/>
   <path class="fil0"
         d="M662.35 1433.37c-6.08,14.44 -37.76,48.52 -51.91,64.54 -10.9,12.35 -9.8,20.49 -31.19,24.49 -15.87,2.97 -35.89,2.62 -40.01,-14.09 -5.4,-21.91 53.07,-121.88 123.11,-74.94zm-200.34 -216.61c9.85,-14.99 10.66,-25.78 30.81,-29.1 19.77,-3.26 33.71,7.26 41.35,17.37 -15.1,16.28 -208.98,131.37 -228.4,147.6 -8.7,7.26 -2.47,-0.19 -7.16,8.04 30.35,63.14 79.43,-7.31 152.28,-44.19 16.33,8.59 26.54,22.51 49.04,32.05l-23.74 18.91c-41.22,26.12 -124.67,66.17 -64.01,109.69 17.82,12.78 51.77,16.22 76.92,12.34 -6.64,62.34 41.23,73.81 89.88,50.82 -2.65,14.6 -8.3,21.06 0.12,36.51 20.61,37.86 97.48,13.14 83.9,-8.09 -8.09,-5.95 2.92,-2.03 -7.79,-2.31 -7.97,-0.21 -20.51,6.27 -26.99,-1.81 -12.87,-16.06 73.82,-97.15 91.79,-126.1 -15.48,-20.61 -21.24,-13.2 -35.22,-17.83 -8.72,-2.9 -1.68,0.52 -7.67,-3.98 -5.53,-4.15 -29.08,-44.74 -87.38,-28.3 -30.46,8.59 -62.69,35.69 -78.9,58.12 -7.68,10.62 -11.07,20.83 -19.19,30.86 -25.24,-4.26 -29.99,-3.91 -47.72,-19.07 3.03,-26.93 65.71,-56.76 99.4,-79.37l107.44 -69.42c-20.92,-71.39 -100.37,16.7 -133.18,28.71 -12.61,-8.11 -31.67,-25.97 -41.41,-36.83 2.77,-3.71 0.94,-2.03 5.5,-6.09l47.21 -30.82c3.62,-2.33 23.93,-16.06 27.54,-17.05 15.23,-4.17 15.72,4.98 30.98,-5.17 -1.48,-13.37 -13.34,-16.73 -33.11,-47.92 -68.52,-108.04 -154.92,1.68 -92.29,22.43z"/>
   <path class="fil0" d="M1818.3 1112.38c0,59.38 85.23,59.38 85.23,0 0,-54.99 -85.23,-52.79 -85.23,0z"/>
   <path class="fil0"
         d="M247.07 1112.38c0,51.7 46.43,56.25 69.63,36.28 7.57,-6.5 13.92,-19.53 14.47,-29.28 3.28,-57.76 -84.1,-57.16 -84.1,-7z"/>
   <path class="fil4"
         d="M803.08 1472.58c-69.8,5.1 -43.03,-57.75 -30.08,-71.45 45.55,-48.16 149.51,-25.2 218.87,-17.89 89.67,9.47 95.61,-0.69 114.06,0.67 19.62,32.57 -3.82,36.51 -17.09,51.38 -8.5,9.52 -16.86,48.52 -19.95,63.73 13.32,-6.94 4.72,-3.84 16.03,-12.08 35.74,-26.02 41.15,9.36 43.19,14.26 38.64,-71.98 108.43,-43.3 108.79,44.74 0.26,66.38 -38.31,133.2 -105.74,121.92 2.33,97.26 22.05,167.32 -36.99,161.21 -6.84,-21.37 -6.87,-142.96 -7.78,-174.51 -18.92,3.18 -41.2,39.14 -82.61,28.27 -61.32,-16.1 17.98,-144.66 35.26,-254.5l-49.45 -7.45c-12.69,49.57 -28.99,97.85 -42.36,147.11 -24.66,90.89 -22.87,117.84 -78.15,103.65 1.29,-26.24 29.19,-102.83 38.02,-132.68 10.4,-35.14 32.98,-95.52 37.6,-129.51l-49 -7.73c-14.55,51.41 -30.8,103.4 -44.85,155.11 -22.51,82.8 -25.12,128.3 -80.99,105.77l78.59 -263.79c-36.45,7.39 -54.38,32.3 -45.37,73.77zm-73.87 -130.44c-2.09,4.21 -0.38,5.91 -6.28,9.37 -12.32,7.21 -9.2,-1.02 -9.64,-1.23 -0.32,-1.01 -1.39,-3.91 -0.91,-6.67l7.45 -20c2.68,-16.19 3.37,-29.3 -2.13,-40.76 8.94,2.39 21.27,10.27 29.46,15.01l21.1 12.25c7.6,4.62 3.25,1.32 8.73,6.09 -17.55,4.09 -34.94,16.71 -47.78,25.94zm878.27 42.92c-28.06,-14.7 -67.19,-63.95 -67.75,-117.03 -0.33,-30.7 13.56,-52.07 30.29,-63.09 24.03,-15.81 12.92,0.86 22.9,-25.34 4.58,-12.04 9.83,-17.55 21.9,-22.01 15.52,19.55 33.5,40.08 48.95,61.13 12.68,17.28 33.41,50.3 54.48,54.72 20.86,-14.72 11.27,-31.36 22.23,-49.53 14.63,4.58 13.92,14.15 13.58,32.95 -0.81,44.46 -15.33,78.05 -66.21,59.3 6.72,56.7 -4.55,95.58 -65.95,79.07 -6.64,12.38 -16.29,43.49 -24.28,60.16 -9.69,20.21 4.57,38.88 11.47,62.62 51.76,177.9 -119.15,182.6 -96.72,62.54 4.01,-21.51 13.67,-43.43 23.32,-61.46 15.07,-28.17 22.09,-21.86 6.28,-53.8 -2.48,25.76 -9.68,47.39 -24.53,57.8 -27.51,19.28 -41.48,4.1 -64.63,-5.66 -4.77,22.98 -21.93,38.44 -34.04,55.32 -18.42,25.67 32.97,152.62 -49.67,190.98 -53.65,24.9 -87,-32.88 -61.68,-83.97 34.25,-69.12 66.02,-49 58.28,-105.3 -11.24,17.21 -14.13,35.59 -33.4,45.1 -23.65,11.68 -39.98,-1.14 -49.13,-16.5 -18.93,-31.79 -18.53,-84.96 -30.21,-121.02 -0.8,-0.25 -2.03,-0.1 -2.52,-0.12 -30.52,-1.64 8.52,9.23 -15.36,-1.48 -9.19,-24.16 22.72,-52.16 50.99,-49.99 11.88,30.01 19.96,120.6 36.7,140.13 90.29,3.28 -51.16,-182.23 48.55,-179.88l35.65 165.63c3.63,-2.24 1.53,-0.55 5.96,-4.59l31.2 -46.55c-18.21,-30.94 -38.9,-61.11 -34.8,-111.34 3.52,-43.18 27.41,-72.13 70.03,-75.67 7.12,-19 13.18,-25.16 31.36,-30.14 15.32,15.53 54.29,126.2 71.79,156.41 10.08,-14.19 21.19,-40.09 24.97,-59.39zm-930.36 31.62c5.99,4.5 -1.05,1.08 7.67,3.98 13.98,4.63 19.74,-2.78 35.22,17.83 -17.97,28.95 -104.66,110.04 -91.79,126.1 6.48,8.08 19.02,1.6 26.99,1.81 10.71,0.28 -0.3,-3.64 7.79,2.31 13.58,21.23 -63.29,45.95 -83.9,8.09 -8.42,-15.45 -2.77,-21.91 -0.12,-36.51 -48.65,22.99 -96.52,11.52 -89.88,-50.82 -25.15,3.88 -59.1,0.44 -76.92,-12.34 -60.66,-43.52 22.79,-83.57 64.01,-109.69l23.74 -18.91c-22.5,-9.54 -32.71,-23.46 -49.04,-32.05 -72.85,36.88 -121.93,107.33 -152.28,44.19 4.69,-8.23 -1.54,-0.78 7.16,-8.04 19.42,-16.23 213.3,-131.32 228.4,-147.6 -7.64,-10.11 -21.58,-20.63 -41.35,-17.37 -20.15,3.32 -20.96,14.11 -30.81,29.1 -62.63,-20.75 23.77,-130.47 92.29,-22.43 19.77,31.19 31.63,34.55 33.11,47.92 -15.26,10.15 -15.75,1 -30.98,5.17 -3.61,0.99 -23.92,14.72 -27.54,17.05l-47.21 30.82c-4.56,4.06 -2.73,2.38 -5.5,6.09 9.74,10.86 28.8,28.72 41.41,36.83 32.81,-12.01 112.26,-100.1 133.18,-28.71l-107.44 69.42c-33.69,22.61 -96.37,52.44 -99.4,79.37 17.73,15.16 22.48,14.81 47.72,19.07 8.12,-10.03 11.51,-20.24 19.19,-30.86 16.21,-22.43 48.44,-49.53 78.9,-58.12 58.3,-16.44 81.85,24.15 87.38,28.3zm702.67 -1208.47c7.46,9.38 -8.98,11.91 16.05,3.01 12.88,-4.58 1.75,-2.36 13.3,-4.15 12.84,-0.71 24.75,-5.2 38.05,1.17 43.97,21.06 28.25,70.78 9.59,80.29 14.23,-36.47 7.84,-81.53 -45.03,-75.1 -0.97,0.77 -1.3,2 -7.33,4.65l-21.37 7.5c-13.16,5.7 -13.02,10.42 -26.6,11.49l12.26 -19.96c0.33,-1.38 1.55,-1.32 2.32,-1.98 9.79,-39.31 12,-74.86 -46.14,-87.2l-12.66 -3.67c-0.56,-1.28 -1.97,-0.94 -2.89,-1.53 51.62,-11.65 98.93,32.59 70.45,85.48zm-122.07 -22.84c-25.51,-13.25 -17.51,-57.07 -84.89,-57.97 22.86,-28.36 94.67,21.69 84.89,57.97zm-1021.76 1215.59c16.48,9.02 25.98,46.5 85.49,55.26 5.89,42.29 35.92,73.23 67.85,88.4 39.32,18.69 25.7,-2.81 49.11,28.65 20.63,27.73 42.02,37.3 72.85,45.59 29.37,7.9 19.62,26.62 72.07,42.95 49.9,15.54 87.59,-0.93 118.58,-22.2 -3.95,32.28 -3.28,29.59 5.89,58.28l2.49 5.67c33.57,18.95 26.61,43.65 117.21,30.16 14.47,-2.16 18.43,4.81 34.34,8.86 14.4,3.67 31.72,4.49 47.45,1.99 9.65,-1.54 31.58,-11.07 34.93,-11.16 8.16,-0.2 21.41,11 33.97,15.37 39.85,13.89 44.72,-12.34 41.99,63.99 4.82,33.08 -2.39,29.99 12.51,57.06 14.94,10.37 22.38,28.6 63.67,30.53 28.25,1.33 54.16,-8.13 71.67,-22.61 46.81,-38.71 35.22,-78.21 35.98,-149.49l23.27 -10.35c6.59,110.78 120.96,169.22 218.66,74.56 22.58,-21.87 30,-49.14 40.07,-85.94 50.13,31.06 94.06,40.43 147.85,-0.38 40.52,-30.74 56.24,-72.92 56.25,-145.37 -2.1,-13.31 -4.46,-27.99 -5.21,-38.76l-15.89 -54.4c73.39,-11.57 71.24,-71.64 97.28,-88.56 37.21,-24.17 56.4,-62.2 58.42,-122.15 7.4,-70.44 -52.11,-127.77 -117.58,-96.35 -6.97,-10.41 -11.16,-15.66 -19.01,-25.46 -6.71,-8.37 -14.2,-19.2 -21.19,-26.99 -33.61,-37.52 -96.02,-24.63 -126.61,19.05 -30.77,43.94 -39.46,34.45 -60.44,80.37 -10.7,23.43 -0.89,14.14 -22.13,26.04 -14.69,8.23 -14.02,13.4 -26.35,21.83 -22.54,15.41 -40.43,13.76 -64.3,50.58 -8.42,12.98 -1,8.05 -13.02,12.92 -9.28,3.75 -14.11,0.45 -36.21,11.96 -12.87,6.71 -16.37,11.75 -29.49,18.69 -18.48,-27.6 -4.2,-18.96 -18.38,-29.65 3.86,14.56 10.92,24.94 9.17,37.52l-43.91 8.45c-8.71,-107.82 -72.27,-179.43 -75.71,-283.11 5.7,-10.65 36.16,4.31 75.32,8.7 32.75,3.67 56.81,6.61 90.59,6.15 113.93,-1.55 110.64,-36.21 132.96,-53.82 10.06,-48.52 40.82,-121.96 32.24,-176.27 -4.9,-22.43 2.44,-47.11 -0.46,-70.56l-31.63 -8.29c0.11,14.36 -0.19,0.74 -3.86,16.19 -4.59,19.34 2.48,15.11 -12.06,25.82l3.48 9.07 24.98 11.1c1.67,-4.04 2.56,-7.75 3.93,-10.74 4.71,-10.25 2.4,-5.28 8.05,-10.06l-5.5 33.19 -23.83 -10.89 -5.75 9.61c-8.48,76.55 -33.9,145.84 -115.33,149.26 -41.07,1.72 -73.09,-14.73 -98.89,-33.2 -24.14,-17.3 -45.44,-53.4 -72.96,-58.65 -24.33,23.47 -89.82,35.67 -134.86,35.23 -0.26,19.34 36.59,111.93 -8.1,157.65 -7.62,-7.76 -8.19,-16.18 -11.81,-25.83 -11.31,-11.93 -6.28,-8.06 -10.01,-22.42 -6.76,-26.03 -9.01,-16.4 -52.3,-21.53l-11.6 14.31c-4.57,8.33 -9.82,21.34 -9.74,32.03l0.47 7.04 6.77 -0.01 10.33 0.23c-0.13,10.92 -1.47,16.66 -2,23.55 -7.32,8.99 15.62,8.67 -11.96,6.17 -0.15,-0.01 -7.7,-2.83 -11.92,-3.58 -1.86,11.01 -3.11,3.81 -7.06,8.68l-12.79 39.69c0.34,0.05 9.02,1.16 9.82,1.48 13.55,5.39 1.7,-3.9 8.21,6.84l-3.46 21.67c-6.48,5.43 -0.45,0.64 -9.1,5.97l-10.87 -1.46 -7.23 7.34 -7.68 32.05 -2.11 17.05c7.4,4.08 33.95,11.45 13.37,36.13l-8.37 3.21 -5.99 -6.15c-0.99,-0.64 -2.28,-1.39 -3,-1.87 -0.67,-0.45 -2.09,-1.38 -2.76,-1.83 -0.74,-0.5 -3.59,-2.68 -4.51,-3.5 -2.08,15.4 1.31,12.61 -18.43,13.78 4.36,-41.33 80.05,-263.86 79.48,-266.06 -14.65,6.98 -28.51,20.18 -44.79,22.43 5.51,-43.07 50.77,-63.87 72.52,-89.86l7.21 -28.76 -11.2 -8.95c-28.31,9 -57.16,22.22 -84.88,32.13 -234.03,83.71 -186.11,-35.19 -189.26,-91.33l3.13 -21.28c-12.37,3.65 -23.75,7.97 -39.79,7.47l3.19 -30.52 5.95 21.49 18.43 -5.14c7.37,-18.51 3.54,0.39 -2.62,-11.3 -0.52,-1 -1.88,-1.53 -2.33,-3.79 -0.5,-2.51 -1.77,-2.79 -2.46,-4.29 22.56,4.21 16.44,-3.99 34.66,3.36l2.32 -13.55 2.21 -29.4c-12.54,2.6 -24.76,8.21 -35.8,9.21 -17.65,1.59 -18.11,-3.37 -35.78,4.23 -10.47,42.06 -44.58,210.12 -18.12,243.25 12.71,15.92 78.22,31.88 104.84,35.96 52.62,8.07 76.5,3.4 128.23,2.34 -3.45,11.07 -17.26,30.17 -24.06,43.86l-63.02 136.53c-32.52,-9.08 -117.55,-87.65 -137.41,-112.42 -35.19,-43.87 -72.61,-93.28 -96.35,-155.8 -63.81,-168.05 -53.92,-350.89 42.95,-503.86 67.02,-105.84 90.25,-99.79 118.26,-133.97 14.42,-17.61 50.52,-39.71 70.47,-51.69 52.02,-31.23 113.6,-56.87 182.97,-69.13 56.02,-9.9 176.55,-16.95 224.68,5.39 -2.87,14.98 -15.05,27.16 -23.51,36.54l-71.13 97.97c14.08,0.98 18.08,0.6 26.94,7.72 47.4,5.54 98.25,58.58 117.72,82.83 8.84,-5.94 21.45,-23.64 30.29,-32.78 24.65,-25.5 66.81,-61.94 104.18,-74.76 10.63,7.02 98.72,68.43 89.54,5.07 -3.63,-25.05 -23.43,-28.97 -32.85,-37.37 16.81,-8.24 30.17,5.61 36.98,17.55 9.88,17.33 2.25,36.02 3.03,55.58 33.54,32.85 60.7,66.2 88.61,116.13 16.94,30.32 48.36,110.08 55.56,148.63 13.68,-5.05 11.14,-8.07 20.53,-13.18 4.03,-10.2 -2.08,-5.77 11.22,-15.45 3.51,-2.56 7.41,-4.33 11.2,-6.89 12.25,-8.26 11.5,-8.63 27.47,-11.5 -20.52,-18.42 -40.05,11.4 -59.3,13.01 -0.99,-44.45 -65.52,-161.05 -95.46,-197.29 -5.84,-7.08 -23.38,-26.96 -26.5,-33.04 -8.98,-17.47 8.09,-21.67 -5.25,-46.34 -9.64,-17.84 -19.39,-17.41 -28.43,-30.91 43.74,-10.19 90.29,-85.2 25.93,-122.28 -23.1,-13.32 -37.96,-5.8 -62.99,-3.72 33.2,-69.18 -35.87,-112.41 -92.75,-85.33 -13.92,6.63 -32.69,17.52 -36.95,33.45 -20.16,-5.38 -113.2,-127.34 -163.57,25.42 -2.81,8.51 -6.89,26.15 -10.59,33.88 -126.03,-10.49 -220.35,1.1 -337.26,59.26 -128.1,63.72 -211.87,164.18 -271.78,287.78 -34.47,71.11 -41.01,133.29 -47.09,208.61 -10.44,129.36 32.74,237.01 78.03,322.6 -28.38,-2.36 -34.33,-7.7 -65.32,1.39 -37.82,11.08 -65.29,40.07 -78.01,77.63 -10.82,31.96 -1.19,40.15 -1.19,69.21 -10.12,2.7 -40.88,23.47 -51.13,30.39 -42.31,28.57 -105.11,51.35 -95.88,108.94 2.63,16.39 8.57,19.24 9.9,34.37z"/>
   <path class="fil4"
         d="M1130.38 1640.96c61.13,11.7 78.33,-86.59 50.87,-124.9 -18.85,-26.29 -49.96,0.94 -53.52,26.11 -2.71,19.07 1.6,76.38 2.65,98.79z"/>
   <path class="fil4"
         d="M1599.66 1215.25c-80.61,36.97 66.28,203.43 69.91,100.7 0.69,-19.6 -8.5,-27.48 -17.01,-37.83l-44.63 -55.44c-0.56,-0.58 -1.35,-1.39 -1.91,-1.94l-4.17 -3.7c-0.45,-0.4 -1.4,-1.27 -2.19,-1.79z"/>
   <path class="fil4"
         d="M1485.02 1339.52c-71.34,19.84 -20.51,133.89 8.93,141.77 29.81,7.98 38.75,-36.01 26.45,-63.45 -10.28,-22.94 -23.97,-59.5 -35.38,-78.32z"/>
   <path class="fil4"
         d="M662.35 1433.37c-70.04,-46.94 -128.51,53.03 -123.11,74.94 4.12,16.71 24.14,17.06 40.01,14.09 21.39,-4 20.29,-12.14 31.19,-24.49 14.15,-16.02 45.83,-50.1 51.91,-64.54z"/>
   <path class="fil4"
         d="M1060.34 1525.68l-29.97 106.14c0.29,31.98 37.57,14.14 54.84,-0.63l-3.55 -102.05c-4.08,-9.15 3,-6.67 -14.18,-4.8 -0.62,0.06 -1.85,0.34 -2.41,0.42l-4.73 0.92z"/>
   <path class="fil4"
         d="M1372.1 1628.97c-9.99,12.29 -71,71.39 -37.41,100.69 20.88,18.22 36.91,-12.83 39.91,-30.76 3.49,-20.93 1.39,-48.94 -2.5,-69.93z"/>
   <path class="fil4"
         d="M1546.96 1545.23c-11.48,24.64 -23.78,74.56 1.83,82.65 25.89,8.18 31.82,-25.99 29.18,-48.62 -2.5,-21.47 -9.93,-40.83 -14.96,-59.72l-16.05 25.69z"/>
   <path class="fil1"
         d="M1070.08 380.25c4.4,3.46 15.27,4.17 21.17,4.17 1.37,-0.22 1,-0.49 1,0.94 24.03,0.22 55.7,21.62 69.88,32.31 9.85,7.43 19.05,15.92 27.3,23.85 3.74,3.59 22.53,23.1 24.33,27.32 5.75,-1.08 12,-9.02 15.75,-13.46 4.59,-5.42 8.82,-10.47 13.26,-15.85 10.69,-12.97 32.13,-30.48 45.65,-41.58 5.41,-4.45 10.52,-7.94 16.74,-12.37 10.86,-7.72 23.52,-15.4 37.04,-21.18 13.22,-5.65 11.72,0.42 37.24,14.45 11.34,6.24 28.8,15.26 42.66,15.96 23.73,1.2 21.81,-22.95 17.44,-35.98 -4.73,-14.13 -17.72,-22.48 -29.8,-28.48 1.72,-1.05 -1.86,-1.27 3.85,-0.77 0.41,0.04 3.39,0.91 3.97,1.1 2.82,0.87 5.58,1.69 8.32,2.69 31.68,11.46 42.31,32.44 25.53,64.1 -5.45,10.28 -11.89,13.43 -25.26,16.38 1.78,1.83 -0.32,0.28 1.94,1.48 10.17,5.41 36.66,6.38 49.62,-13.6 11.13,-17.18 15.27,-35.72 0.84,-51.83 -6.82,-7.6 -11.44,-11.03 -20.1,-16.01 -3.9,-2.24 -5.82,-1.51 -8.23,-4.8 5.44,-1.27 19.64,-10.92 24.06,-14.04 7.61,-5.38 18.66,-15.53 24.08,-23.06 11.33,-15.74 16.11,-32.71 9.9,-52.06 -5.52,-17.21 -18.03,-35.04 -33.61,-42.61 -30.31,-14.71 -51.52,0.81 -62.54,3.38 3.04,-13.03 4.07,-10.88 6.62,-28.49 1.67,-11.49 -0.32,-23.75 -3.2,-32.11 -12.54,-36.29 -74.54,-43.51 -100.03,-31.04 -16.2,7.93 -24.69,14.98 -32.39,30.79 -0.66,1.37 -0.73,1.61 -1.33,2.69l-2.02 2.99c0,-22.45 -32.09,-38.29 -52.04,-42.24 -89.34,-17.68 -129.15,64.87 -76.74,131.94 4.31,5.51 6.87,7.86 12.46,11.61 -1.13,4.26 -19.59,28.87 -22.65,33.5l-35.22 50.04c-4.23,5.64 -7.3,10.77 -11.6,16.47 -6.94,9.21 -16.15,24.37 -23.4,32.85 -0.1,0.12 -0.33,0.37 -0.49,0.55z"/>
   <path class="fil5"
         d="M1017.05 498.24c0.49,1.11 4.38,39.95 32.52,9.83 1.78,-1.91 3.77,-3.31 5.58,-5.42 2.09,-2.44 2.87,-4.11 5.5,-5.46 -2.41,26.65 -37.49,43.29 -49.02,10.45 -6.55,2.57 -10.03,8.21 -13.85,13.83 -8.7,12.8 -2.16,10.46 -24.08,32.08 -2.86,2.82 -4.7,3.66 -7.56,6.48l-29.31 25.85c-2.86,2.22 -4.5,3.91 -7.73,6.31l-24.14 17.97c-3.21,2.15 -5.53,4.24 -8.91,5.81 -2.03,3.26 -10.42,8.7 -14.36,8.36 -1.69,3.33 -6.14,5.65 -10.03,6.69 1.66,6.21 5.77,2.38 10.03,7.96 16.4,-2.88 80.27,-4.79 95.35,-9.8 11.66,-3.89 8.15,-9.87 23.21,-11.95 38.28,-5.3 54.21,14.74 92.09,4.81 10.03,-2.63 17.68,-7.2 26.46,-9.64 -4.12,30 -31.57,55.53 -55.82,64.5 -34.9,12.91 -74.92,-4.04 -88.23,-24.53 -3.88,3.79 -11.02,12.44 -13.6,16.77l-14.29 31.09c31.16,0 60.26,-3.28 88.83,-11.44 16.47,-4.71 63.91,-24.7 75.61,-25.67 0,37.84 -52.93,62.58 -82.21,74.23 -6.3,2.5 -12.13,5.13 -19.06,7.02 -19.37,5.28 -27.5,9.18 -51.53,14.65 -14.19,3.24 -11.84,0.22 -15.98,10.1 -1.19,2.86 -2.24,7.42 -2.56,10.48 -1.86,17.89 5.53,48.3 18.17,60.82 11.58,11.47 18.98,12.97 32.85,20.31 0,4.62 -1.34,15.61 -3.93,19.14l-2.09 2.09c3.93,0 4.38,6.9 7.08,15.79 6.48,21.37 8.53,36.82 10.73,59.61l1.37 -0.97c6.93,-5.81 7.5,-9.13 20.84,-17.52 8.66,-5.46 18.22,-8.29 26.01,-14.64 9.91,-35.28 6.14,-61.44 28.53,-78.25 22.91,-17.2 36.41,-31.56 54.11,-53.22 23.41,-28.63 45.95,-68.3 52.36,-107.8 2.27,-14.02 -0.31,-38.85 6.82,-47.52 8.6,-1.15 8.7,5.43 17.74,4.47 1.83,-2.47 3.03,-5.49 3.62,-10.15l-39.07 -3.45c-1.29,-5.59 15.69,-56.55 19.1,-73.94 0.98,-4.97 3.12,-15.89 3.15,-20.77 0.03,-5.6 -6.03,-9.24 -9.83,-12.94 -4.37,-4.27 -7.68,-6.42 -11.84,-11.22l-9.48 -12.84c-5.53,-5.22 -14.01,-21.68 -18.28,-29.55 -10.82,-19.93 -8.36,-20.98 -12.67,-31.72l-0.88 -1.72c-18.05,0.91 -81.32,4.56 -92.51,-5.21 -2.56,2.16 -0.53,-0.72 -2.42,3.36 -0.46,1 -1.1,3.4 -1.46,4.54 -4.44,13.91 -18.99,51.1 -20.93,61.94z"/>
   <path class="fil6"
         d="M950.87 941.45c15.72,10.82 8.86,9.07 31.05,19.58l-32.27 19.84c-20.03,14.01 -39.55,30.66 -52.56,51.75 -4.72,7.65 -15.05,27.17 -13.99,38.22 21.48,1.1 73.31,-40.72 89.82,-55.65 4.46,-4.04 8.49,-7.97 12.2,-11.84 2.22,-2.32 3.57,-3.84 5.85,-6.23 2.29,-2.39 3.42,-4.38 5.8,-6.77 2.59,26 3.84,47.28 8.39,72.82 2.96,16.55 9.89,53.25 19.91,62.17 6.92,-4.96 15.02,-19.1 18.79,-30.14 9.34,-27.36 4.97,-59.48 -2.66,-87.06l-11.97 -37.99c39.48,-0.59 100.61,-10.43 134.29,-34.11 2.75,-1.94 4.35,-3.98 6.94,-5.38 0,-7.37 0.51,-13.59 -1.16,-19.62 -1.28,-4.58 -4.39,-11.09 -7.23,-14.83 -4.11,-5.41 -20.38,-14.77 -30.71,-12.96 -8.67,-0.21 -9.25,2.62 -20.9,9.72l-59.47 31.26c-7.79,6.35 -17.35,9.18 -26.01,14.64 -13.34,8.39 -13.91,11.71 -20.84,17.52l-1.37 0.97c-2.2,-22.79 -4.25,-38.24 -10.73,-59.61 -2.7,-8.89 -3.15,-15.79 -7.08,-15.79 -6.49,-0.43 -15.42,3.16 -19.08,5.81 -4.7,3.4 -8.42,8.32 -11.81,13.26 -8.47,12.34 -8.95,25.15 -3.2,40.42z"/>
   <path class="fil6"
         d="M1043.12 421.86c33.29,7.7 42.1,9.76 77.7,2.97 6.73,-1.28 19.32,-4.64 25.58,-4.51 1.57,5.54 1.11,21.37 6.49,40.71 3.7,13.28 9.98,24.12 13.31,35.57l9.48 12.84c4.16,4.8 7.47,6.95 11.84,11.22 3.8,3.7 9.86,7.34 9.83,12.94 -0.03,4.88 -2.17,15.8 -3.15,20.77 -3.41,17.39 -20.39,68.35 -19.1,73.94l39.07 3.45 12.09 -0.79 7.97 -19.49c0.12,-0.19 0.32,-0.46 0.44,-0.63 0.12,-0.17 0.37,-0.48 0.47,-0.62 0.1,-0.13 0.32,-0.41 0.5,-0.6 0,-8.21 1.63,-14.67 3.08,-21.67 1.4,-6.74 2.85,-13.26 4.36,-20.72 3.19,-15.79 4.66,-29.93 1.58,-46.01 -4.92,-3.39 -13.13,-17.51 -16.91,-24.8 -2.72,-5.23 -10.98,-24.32 -13.99,-27.59 -1.8,-4.22 -20.59,-23.73 -24.33,-27.32 -8.25,-7.93 -17.45,-16.42 -27.3,-23.85 -14.18,-10.69 -45.85,-32.09 -69.88,-32.31l-1 -0.94c-5.9,0 -16.77,-0.71 -21.17,-4.17 -22.21,-5.48 -38.89,-33.14 -43.25,-51.92 -8.6,-37.09 21.37,-54.79 24.31,-67.45 -23.4,5.46 -26,6.27 -43.14,20.04l-12.43 14.64c-2.38,3.48 -4.41,7.81 -6.27,11.79 -9.36,20.11 -9.7,41.15 -2.73,61.26 5.82,16.75 18.53,30.93 32.48,40.74 5.25,3.69 18.03,11.18 24.07,12.51z"/>
   <path class="fil5"
         d="M1469.27 838.31c3.9,1.43 9.55,0.94 14.73,0.79 -6.8,-2.5 -15.9,-7.14 -22.93,-10.23l15.02 -42.32 41.56 16.81 -0.05 10.06 1.11 -8.87c3.91,-14.63 1.12,-21.12 16.3,-25.51l54.18 -15.01c17.75,-4.44 74.57,-18.29 86.63,-24.68 -3.29,-14.17 -26.73,-8.64 -38.71,-5.62 -7.54,1.9 -13.16,3.6 -20.86,5.22 -3.73,0.78 -8.41,2.96 -9.42,-0.74 -2.18,-8 19.04,-15.93 20.88,-16.89 8.43,-4.44 47.07,-23.96 44.1,-34.13 -2.25,-3.37 -3.23,-5.28 -8.97,-5.13 -4.11,0.12 -8.57,2.02 -11.75,3.46 -7.66,3.46 -12.77,5.8 -19.44,9.65 -4.48,2.58 -25.36,15.67 -30.57,12.62 -3.29,-1.92 1.59,-7.13 3.28,-8.83l45.4 -48.88c1.43,-1.84 2.44,-2.6 3.74,-4.28 2.42,-3.15 3.19,-7.76 1.27,-11.77 -9.23,-4.43 -21.03,8.14 -26.07,12.04 -3.58,2.76 -7.37,5.97 -10.77,9.29l-32.77 27.4c-5.98,4.65 -15.79,16.82 -23.64,17.47 0,-27.97 1.65,-51.19 -29.12,-51.2 -11.29,-0.01 -17.01,7.37 -17.01,10.08 0,12.07 29.23,-3.75 22.8,39.86 -1.09,7.4 -5.77,18 -10.04,23.05 -6.75,7.98 -10.1,9.1 -24.8,8.31 -17.65,-0.95 -41.45,-5.85 -40.12,-25.01 0.64,-9.22 5.9,-16.88 10.46,-22.73 7.51,-9.65 10.74,-9.25 16.91,-13.18 1.92,-1.22 0.71,-0.38 1.73,-1.28 -40.39,-9.41 -62.94,44.13 -35.36,71.49 14.39,14.27 24.9,21.18 16.01,43.57l-8.87 24.22c-2.68,7.24 -7.03,16.28 -8.88,24.23l14.04 6.67z"/>
   <path class="fil7"
         d="M1235.64 609.63c-0.18,0.19 -0.4,0.47 -0.5,0.6 -0.1,0.14 -0.35,0.45 -0.47,0.62 -0.12,0.17 -0.32,0.44 -0.44,0.63l-7.97 19.49 -12.09 0.79c-0.59,4.66 -1.79,7.68 -3.62,10.15 -9.04,0.96 -9.14,-5.62 -17.74,-4.47 -7.13,8.67 -4.55,33.5 -6.82,47.52 -6.41,39.5 -28.95,79.17 -52.36,107.8 -17.7,21.66 -31.2,36.02 -54.11,53.22 -22.39,16.81 -18.62,42.97 -28.53,78.25l59.47 -31.26c11.65,-7.1 12.23,-9.93 20.9,-9.72 -1.9,-1.75 0.84,-0.63 -2.09,-1.33 -0.88,-0.21 -2.02,-0.13 -2.93,-0.13 -0.7,-8.52 -5.81,-9.35 2.15,-19.92 13.66,-18.14 32.68,-52.28 44.3,-73.05 16.36,-29.23 31.11,-71.67 38.78,-104.64 21.92,10.52 89.11,-1.22 78.63,-49.57 -4.71,-21.76 -21.55,-29.46 -42.82,-24.92 -7.61,1.63 -4.45,1.03 -11.74,-0.06z"/>
   <path class="fil2"
         d="M1213.76 468.84c3.01,3.27 11.27,22.36 13.99,27.59 3.78,7.29 11.99,21.41 16.91,24.8l5.29 -4.28c12.83,-13.58 56.25,-85.95 70.2,-101.31l11.34 -8.71c25.39,-16.87 34.16,-6.16 59.26,3.72 7.19,2.84 26.24,7.54 35.4,3.2 13.37,-2.95 19.81,-6.1 25.26,-16.38 16.78,-31.66 6.15,-52.64 -25.53,-64.1 -2.74,-1 -5.5,-1.82 -8.32,-2.69 -0.58,-0.19 -3.56,-1.06 -3.97,-1.1 -5.71,-0.5 -2.13,-0.28 -3.85,0.77 12.08,6 25.07,14.35 29.8,28.48 4.37,13.03 6.29,37.18 -17.44,35.98 -13.86,-0.7 -31.32,-9.72 -42.66,-15.96 -25.52,-14.03 -24.02,-20.1 -37.24,-14.45 -13.52,5.78 -26.18,13.46 -37.04,21.18 -6.22,4.43 -11.33,7.92 -16.74,12.37 -13.52,11.1 -34.96,28.61 -45.65,41.58 -4.44,5.38 -8.67,10.43 -13.26,15.85 -3.75,4.44 -10,12.38 -15.75,13.46z"/>
   <path class="fil6"
         d="M881.69 638.98c-4.14,-1.5 -6.21,0.06 -11.03,0.06 0.19,8.6 8.03,16.58 12.77,21.33 14.77,14.84 41.73,21.28 64.31,13.66l13.41 -4.89c2.58,-4.33 9.72,-12.98 13.6,-16.77 13.31,20.49 53.33,37.44 88.23,24.53 24.25,-8.97 51.7,-34.5 55.82,-64.5 -8.78,2.44 -16.43,7.01 -26.46,9.64 -37.88,9.93 -53.81,-10.11 -92.09,-4.81 -15.06,2.08 -11.55,8.06 -23.21,11.95 -15.08,5.01 -78.95,6.92 -95.35,9.8z"/>
   <path class="fil5"
         d="M575.16 716.28l-0.82 -17.09 12.22 0.34c-1.61,38.44 38.7,60.68 68.83,38.12 27.47,-20.58 19.05,-66.97 -14.7,-75.24l-0.05 -10.94c6.51,0.51 11.78,5.14 10.93,-3.4 -5.62,-5.57 -8.18,-12.04 -19.56,-12.04 0,9 4.01,38.15 4.01,47.15 -10.75,-5.69 -58.24,-18.69 -74.85,-15.7 -13.36,2.4 -9.8,12.55 3.28,17.09 8.1,2.81 14.98,4.28 15.42,9.65l-26.52 2.55c-0.72,0.3 -2.67,0.44 -2.84,3.13 -0.83,13.08 12.68,16.38 24.65,16.38z"/>
   <path class="fil5"
         d="M576.05 719.29l-13.81 3.42c-7.28,1.57 -14.76,3.14 -11.7,11.77 3.89,11 16.47,6.97 30.02,15.22 4.15,2.52 7.1,4.25 11.67,6.38 34.65,16.12 46.8,1.83 46.8,24.53l1.07 18.94c7.72,3.6 25.31,2.52 34.13,0.37 3.66,-2.94 7.99,-16.67 9.71,-21.45 4.8,-7.98 12.17,-37.78 12.29,-48.11 0.14,-11.83 0.15,-18.33 -3.17,-27 -2.02,-5.26 -7.65,-15.24 -11.85,-18.17 3.53,20.57 5.91,28.98 -4.09,47.13 -20.9,37.96 -84.14,39.76 -101.07,-13.03z"/>
   <path class="fil8"
         d="M785.43 381.25c0,11.74 0.42,13.01 8.77,21.32 11.49,11.44 36.79,23.82 51.39,23.82 1.25,0 7.37,-7.72 8.73,-9.32 2.51,-2.97 5.3,-7.23 6.72,-11.33 5.34,-15.47 5.13,-14.72 -6.11,-23.8 -9.11,-7.35 -12.16,-8.57 -21.37,-14.73 -19.25,-12.88 -27.66,-17.52 -40.36,-3.26 -3.41,3.82 -7.77,10.54 -7.77,17.3z"/>
   <path class="fil8"
         d="M720.25 489.59c2,1.34 4.46,3.51 6.7,5.33 10.38,8.4 11.8,8.47 20.95,15.16 6.63,4.84 25.66,16.62 33.52,16.62 3.64,0 11.32,-11.14 13,-14.08 10.19,-17.87 13.86,-19.77 -2.83,-33.22 -5.17,-4.16 -9.69,-7.25 -15.18,-10.89 -6.7,-4.45 -27.15,-15.82 -37.11,-16.04 -1.06,3.99 -9.26,12.28 -11.86,16.22 -3.37,5.11 -6.56,13.34 -7.19,20.9z"/>
   <path class="fil8"
         d="M715.24 621.99c13.05,0 19.57,-6.06 22.9,-18.22 0.69,-2.52 2.6,-14.05 1.72,-16.36 -2.13,-5.61 -37.62,-26.62 -47.66,-30.64 -5.59,-2.23 -9.83,-2.54 -16.07,-3.99 -7.32,10.94 -27.8,28.29 -8.27,45.39 9.88,8.65 33.87,23.82 47.38,23.82z"/>
   <path class="fil9"
         d="M651.57 648.07c0.85,8.54 -4.42,3.91 -10.93,3.4l0.05 10.94c33.75,8.27 42.17,54.66 14.7,75.24 -30.13,22.56 -70.44,0.32 -68.83,-38.12l-12.22 -0.34 0.82 17.09c0.03,2.14 -0.21,1.47 0.89,3.01 16.93,52.79 80.17,50.99 101.07,13.03 10,-18.15 7.62,-26.56 4.09,-47.13 -3.22,-12.24 -15.1,-19.57 -15.1,-23.07 1.28,-4.81 5.86,-9.08 7.01,-14.05 -5.93,-1.38 -9.56,-6.51 -16.04,-8.02 -1.29,4.85 -2.89,6.58 -5.51,8.02z"/>
   <path class="fil2"
         d="M1517.6 813.42c-2.06,41.8 -8.33,88.65 -15.57,129.06 -5.79,32.33 -15.68,76.12 -28.72,106.97 -1.01,2.4 -1.94,4.23 -1.03,6.3 20.99,-19.85 29.23,-57.58 36.09,-84.68 7.15,-28.22 20.39,-108.59 22.03,-138.46 1.07,-19.44 3.94,-20.82 -11.69,-28.06l-1.11 8.87z"/>
   <path class="fil2"
         d="M1376.2 226.65c-0.58,0.93 -1.54,0.89 -0.95,5.82 5.91,-3.57 25.7,-8.49 35.14,-9.45 14.22,-1.43 27.49,0.71 37.93,6.66 8.37,4.77 16.63,13.67 20.52,24.56 6.12,17.07 2.63,22.91 0.24,38.79 9.1,-3.72 16.94,-18.5 17.85,-32.11 1.12,-16.79 -5.08,-28.72 -13.48,-37.31 -32.61,-33.38 -58.67,-10.54 -76.03,-9.08l0.74 -7.82c-1.43,2.35 -3.43,3.55 -5.25,5.74l-15.8 18.32 -0.91 -4.12z"/>
   <path class="fil2"
         d="M1376.2 226.65l0.91 4.12 15.8 -18.32c1.82,-2.19 3.82,-3.39 5.25,-5.74 7.05,-26.39 -1.44,-48.85 -14.99,-63.32 -17.09,-18.26 -52.61,-23.59 -62.7,-16.73 15.06,7.14 38.7,6.02 50.92,29.5 14.69,28.19 2.26,58.85 4.81,70.49z"/>
   <path class="fil2"
         d="M1172.86 134.97c79.67,4 79.19,51.74 92.82,61.83 8.12,-30.91 -7.61,-51.34 -24.98,-63.34 -9.23,-6.39 -21.36,-11.78 -35.15,-11.91 -11.57,-0.11 -29.86,6.27 -32.69,13.42z"/>
   <path class="fil2"
         d="M639.03 780.61c-2.45,3.36 -4.52,7.27 -6.83,11.09 -2.07,3.43 -5.63,8.04 -5.81,11.85 10.55,7.24 61.52,-0.62 76.58,-0.94 -0.94,6.02 -15.85,55.31 -18.01,58.76l-42.37 0.99c1.92,-0.07 14.89,3.08 19.01,3.88 8.25,1.59 12.69,1.49 19.4,5.52 3.66,0.29 3.16,0.91 7.16,1l23.07 -73.22c-6.34,-9.47 -16.51,-16 -27.29,-21.07 -1.72,4.78 -6.05,18.51 -9.71,21.45 -8.82,2.15 -26.41,3.23 -34.13,-0.37l-1.07 -18.94z"/>
   <path class="fil7"
         d="M1043.12 421.86c-1.14,3.1 -1.64,3.46 -1.26,6.54 11.19,9.77 74.46,6.12 92.51,5.21l0.88 1.72c4.31,10.74 1.85,11.79 12.67,31.72 4.27,7.87 12.75,24.33 18.28,29.55 -3.33,-11.45 -9.61,-22.29 -13.31,-35.57 -5.38,-19.34 -4.92,-35.17 -6.49,-40.71 -6.26,-0.13 -18.85,3.23 -25.58,4.51 -35.6,6.79 -44.41,4.73 -77.7,-2.97z"/>
   <path class="fil8"
         d="M758.35 428.4c0.99,11.81 52.07,36.52 59.16,37.11 0,-22.52 -16.67,-42.13 -38.1,-42.13 -9.83,0 -13.8,3.33 -21.06,5.02z"/>
   <path class="fil8"
         d="M704.21 517.67c0,20.03 20.95,37.12 43.11,37.12 8.62,0 10.9,-0.11 19.06,-2.01 -1.36,-5.07 -8.3,-9.49 -12.47,-12.61 -9.18,-6.89 -39.1,-27.28 -49.7,-27.51l0 5.01z"/>
   <path class="fil8"
         d="M820.52 327.09c0,8.18 3.26,8.34 12.7,13.37 18.92,10.06 34.19,26.75 51.47,26.75 -0.54,-6.53 -4.63,-14.13 -8.83,-17.25 -4.27,-3.17 -14.4,-6.58 -25.68,-14.43 -3.39,-2.36 -4.29,-3.8 -8,-6.04 -6.34,-3.83 -11.92,-5.41 -21.66,-5.41l0 3.01z"/>
   <path class="fil9"
         d="M638.03 617.98c0,8.93 20.98,20.07 28.65,23.5 21.84,9.76 18.42,13.99 23.43,15.74 2.81,0.98 7.08,-0.12 12.09,-0.12 -1.64,-7.07 -5.94,-11.22 -10.87,-15.2 -8.6,-6.92 -22.27,-15.97 -32.24,-20.91 -2.89,-1.43 -5.53,-3.06 -8.52,-4.52 -3.64,-1.78 -7.46,-2.03 -10.53,-3.51 -0.45,5.41 -2.01,2.94 -2.01,5.02z"/>
   <path class="fil9"
         d="M856.62 335.11c9.52,0 16.54,-7.47 20.38,-13.71 4.59,-7.43 8.7,-13.85 8.7,-25.41 -17.28,0 -28.74,23.89 -29.08,39.12z"/>
   <path class="fil6" d="M935.94 1121.28c-16.08,5.52 -7.6,28.61 7.95,23.33 14.9,-5.05 7.7,-28.71 -7.95,-23.33z"/>
   <path class="fil6" d="M911.27 1181.09c-14.84,5.78 -6.76,28.49 8.97,23.14 14.04,-4.77 7.5,-29.56 -8.97,-23.14z"/>
   <path class="fil6" d="M890.06 1237.91c-16.36,7.05 -5.03,28.75 9.3,22.68 14.38,-6.09 6.15,-29.33 -9.3,-22.68z"/>
   <path class="fil6" d="M958.79 1063.01c-15.1,6.25 -6,28.91 9.53,22.79 13.55,-5.33 6.63,-29.48 -9.53,-22.79z"/>
   <path class="fil6" d="M868.03 1298.14c-15.37,7.76 -2.3,29 11.27,21.63 13.16,-7.16 4.9,-29.8 -11.27,-21.63z"/>
   <path class="fil6"
         d="M881.69 624.33c3.94,0.34 12.33,-5.1 14.36,-8.36 3.07,-11.71 -1.82,-19.43 -5.34,-26.08 -8.03,5.38 -13.03,18.38 -13.03,32.1 1.84,0.98 2.35,1.1 4.01,2.34z"/>
   <path class="fil10"
         d="M1132.37 510.82c-9.76,6.32 -11.9,15.41 -27.63,20.33 -21.58,6.76 -21.59,-10.05 -21.74,-26.49 -7.74,16.54 -3.87,36.09 17.31,34.43 15.07,-1.18 30.37,-14.89 32.06,-28.27z"/>
   <path class="fil10"
         d="M1011.63 507.64c11.53,32.84 46.61,16.2 49.02,-10.45 -2.63,1.35 -3.41,3.02 -5.5,5.46 -1.81,2.11 -3.8,3.51 -5.58,5.42 -28.14,30.12 -32.03,-8.72 -32.52,-9.83l-5.42 9.4z"/>
   <path class="fil9"
         d="M672.12 615.97c0.09,4.21 2.48,9.15 4.01,12.04 2.01,-0.96 8.8,-3.49 11.03,-4.01 -0.13,-6.1 -3.55,-7.35 -6.01,-11.04 -3.41,0.8 -5.16,2.11 -9.03,3.01z"/>
   <path class="fil9" d="M748.33 527.7l0 -13.04c-7.62,0 -8.08,-0.91 -12.04,-1 0.21,9.39 3.03,11.94 12.04,14.04z"/>
   <path class="fil2"
         d="M711.23 555.79c1.21,4.55 2.68,2.32 4.01,8.02 5.37,0 6.6,-1.19 10.02,-3.01 -1.25,-5.4 -0.88,-7.26 -5.01,-10.03 -3.8,0.89 -6.13,3.08 -9.02,5.02z"/>
   <path class="fil9"
         d="M837.57 358.18c0.8,9.6 -0.78,8.03 8.02,8.03 6.31,0 1.72,-12.04 0,-12.04 -2.38,0 -6.41,2.93 -8.02,4.01z"/>
   <path class="fil2"
         d="M775.58 464.48c5.39,0.03 5.77,1.03 10.85,1.03 -0.05,-2.36 -0.69,-7.97 -1.91,-9.13 -1.21,-1.15 -7.68,-1.7 -10.12,-1.9l1.18 10z"/>
   <path class="fil9"
         d="M799.46 425.39c3.19,0.26 7.11,1.32 10.03,2 0,-5.33 -0.67,-6.07 -1,-10.03 -3.92,0 -7.45,-0.77 -10.03,-2 0.33,3.96 1,4.7 1,10.03z"/>
  </g>
 </g>
</svg>
